<?xml version="1.0" standalone="no"?>
<!DOCTYPE svg PUBLIC "-//W3C//DTD SVG 1.1//EN" "http://www.w3.org/Graphics/SVG/1.1/DTD/svg11.dtd" >
<!--
2013-9-30: Created.
-->
<svg>
<metadata>
Created by iconfont
</metadata>
<defs>

<font id="iconfont" horiz-adv-x="1024" >
  <font-face
    font-family="iconfont"
    font-weight="500"
    font-stretch="normal"
    units-per-em="1024"
    ascent="896"
    descent="-128"
  />
    <missing-glyph />
    
    <glyph glyph-name="shoppingcart1" unicode="&#59030;" d="M161.664 672H1024l-195.36-512H291.36L201.6 395.264v-2.432L0 896h201.6v-64H97.568l64.096-160z m173.76-448h449.12l146.56 384H188.896l146.528-384z m0.576-352a112 112 0 1 0 0 224 112 112 0 0 0 0-224z m0 64a48 48 0 1 1 0 96 48 48 0 0 1 0-96z m512-64a112 112 0 1 0 0 224 112 112 0 0 0 0-224z m0 64a48 48 0 1 1 0 96 48 48 0 0 1 0-96z"  horiz-adv-x="1024" />

    
    <glyph glyph-name="tv1" unicode="&#59031;" d="M963.764706 143.058824h-180.705882v60.235294h180.705882V685.176471H60.235294v-481.882353h180.705882v-60.235294H0V745.411765h1024v-602.352941h-60.235294z m-630.061177-90.352942h356.592942L512 275.576471 333.703529 52.705882z m481.882353-60.235294H208.414118L512 371.952941 815.585882-7.529412z"  horiz-adv-x="1024" />

    
    <glyph glyph-name="icon-test" unicode="&#59034;" d="M1024 384c0-120.470588-42.164706-228.894118-108.423529-316.235294-81.317647-105.411765-204.8-177.694118-346.352942-192.752941-21.082353-3.011765-39.152941-3.011765-57.223529-3.011765-18.070588 0-36.141176 0-54.211765 3.011765-21.082353 3.011765-42.164706 6.023529-63.247059 12.047059-3.011765 0-6.023529 0-6.023529 3.011764-21.082353 6.023529-39.152941 12.047059-57.223529 18.070588-69.270588 24.094118-129.505882 63.247059-180.705883 114.447059-15.058824 15.058824-27.105882 30.117647-39.152941 45.176471C42.164706 155.105882 0 263.529412 0 384S42.164706 612.894118 108.423529 700.235294C123.482353 715.294118 135.529412 733.364706 150.588235 745.411765c51.2 51.2 111.435294 90.352941 180.705883 114.447059 18.070588 6.023529 39.152941 12.047059 57.223529 18.070588 3.011765 0 6.023529 0 6.023529 3.011764 21.082353 6.023529 42.164706 9.035294 63.247059 12.047059 18.070588 3.011765 36.141176 3.011765 54.211765 3.011765s36.141176 0 54.211765-3.011765c21.082353-3.011765 42.164706-6.023529 63.247059-12.047059 3.011765 0 6.023529 0 6.023529-3.011764 21.082353-6.023529 39.152941-12.047059 57.223529-18.070588 69.270588-24.094118 129.505882-63.247059 180.705883-114.447059 15.058824-15.058824 27.105882-30.117647 39.152941-45.176471C981.835294 612.894118 1024 504.470588 1024 384z m-63.247059-30.117647h-150.588235c-3.011765-57.223529-15.058824-114.447059-36.141177-165.647059 36.141176-21.082353 69.270588-45.176471 99.388236-75.294118 51.2 69.270588 84.329412 150.588235 87.341176 240.941177zM271.058824 353.882353c3.011765-48.188235 12.047059-93.364706 27.105882-135.529412 63.247059 30.117647 135.529412 45.176471 210.823529 45.176471s147.576471-18.070588 210.82353-45.176471c15.058824 42.164706 24.094118 87.341176 27.105882 135.529412H271.058824z m481.882352 60.235294c-3.011765 48.188235-12.047059 93.364706-27.105882 135.529412-63.247059-30.117647-135.529412-45.176471-210.823529-45.176471s-147.576471 18.070588-210.82353 45.176471c-18.070588-42.164706-30.117647-87.341176-33.129411-135.529412h481.882352z m81.317648-346.352941c-24.094118 24.094118-51.2 48.188235-81.317648 66.258823-42.164706-78.305882-102.4-144.564706-174.682352-195.764705 99.388235 15.058824 186.729412 60.235294 256 129.505882z m-135.529412 93.364706c-57.223529 27.105882-120.470588 42.164706-186.729412 42.164706s-129.505882-15.058824-186.729412-42.164706c42.164706-81.317647 108.423529-147.576471 186.729412-195.764706 78.305882 48.188235 144.564706 114.447059 186.729412 195.764706z m-252.988236-222.870588c-72.282353 51.2-132.517647 117.458824-174.682352 195.764705-30.117647-18.070588-57.223529-42.164706-81.317648-66.258823 69.270588-69.270588 156.611765-114.447059 256-129.505882zM150.588235 112.941176c30.117647 30.117647 60.235294 54.211765 96.376471 75.294118-18.070588 51.2-33.129412 108.423529-36.141177 165.647059H60.235294c6.023529-90.352941 39.152941-171.670588 90.352941-240.941177zM63.247059 414.117647h150.588235c3.011765 57.223529 15.058824 114.447059 36.141177 165.647059C213.835294 600.847059 180.705882 624.941176 150.588235 655.058824c-51.2-69.270588-84.329412-150.588235-87.341176-240.941177z m210.823529 219.858824c42.164706 78.305882 102.4 144.564706 174.682353 195.764705-99.388235-15.058824-189.741176-60.235294-256-129.505882 21.082353-24.094118 51.2-48.188235 81.317647-66.258823z m51.2-27.105883c57.223529-27.105882 120.470588-42.164706 186.729412-42.164706s129.505882 15.058824 186.729412 42.164706c-42.164706 81.317647-108.423529 147.576471-186.729412 195.764706-78.305882-48.188235-144.564706-114.447059-186.729412-195.764706z m252.988236 222.870588c72.282353-51.2 132.517647-117.458824 174.682352-195.764705 30.117647 18.070588 57.223529 42.164706 81.317648 66.258823-69.270588 69.270588-156.611765 114.447059-256 129.505882zM873.411765 655.058824c-30.117647-30.117647-60.235294-54.211765-96.376471-75.294118 21.082353-51.2 33.129412-108.423529 36.141177-165.647059h150.588235c-6.023529 90.352941-39.152941 171.670588-90.352941 240.941177z"  horiz-adv-x="1024" />

    
    <glyph glyph-name="bill2" unicode="&#59035;" d="M150.588235 112.941176H30.117647v180.705883h120.470588v180.705882H30.117647V655.058824h120.470588V835.764706h843.294118v-903.529412H150.588235v180.705882z m0 60.235295h120.470589v60.235294H90.352941v-60.235294h60.235294z m60.235294-60.235295v-120.470588h722.82353V775.529412H210.823529v-120.470588h120.470589v-180.705883H210.823529v-180.705882h120.470589v-180.705883H210.823529zM150.588235 594.823529H90.352941v-60.235294h180.705883v60.235294H150.588235z m271.058824 60.235295h451.764706v-60.235295H421.647059V655.058824z m0-180.705883h391.529412v-60.235294H421.647059v60.235294z m0-180.705882h301.17647v-60.235294H421.647059v60.235294z"  horiz-adv-x="1024" />

    
    <glyph glyph-name="18" unicode="&#58996;" d="M597.55 561.71c-16.8 86.21-91.69 151.23-181.5 151.23s-164.69-65-181.5-151.23c-61.27-16.8-106.33-73.63-106.33-141.17 0-80.73 64.42-146.19 143.91-146.19H560c79.5 0 143.92 65.46 143.92 146.19-0.03 67.54-45.1 124.37-106.37 141.17z m51.51-135.77A96.93 96.93 0 0 0 552 329.17999999999995H280.15c-53.62 0-97.09 43.31-97.09 96.74a96.93 96.93 0 0 0 97.09 96.77c0 74.81 60.86 135.44 135.91 135.44S552 597.49 552 522.6800000000001c53.62 0 97.09-43.31 97.09-96.74zM519 744.66a46.11 46.11 0 0 0 4.17 2.38c24.81 12.42 55.29 20.72 84.81 20.72 89.8 0 164.69-65 181.5-151.23 61.27-16.8 106.33-73.63 106.33-141.17 0-80.73-64.42-146.19-143.91-146.19h-12.76a27.41 27.41 0 0 0 0 54.77h4.71a96.93 96.93 0 0 1 97.09 96.77c0 53.43-43.48 96.74-97.09 96.74 0 74.81-60.86 135.44-135.91 135.44-22 0-47-11.68-66.28-18.17a25.77 25.77 0 0 0-16.8-0.05 27.41 27.41 0 0 0-5.86 49.99zM498.29 210.34000000000003a13.71 13.71 0 1 0 27.41 0v-21.71L541.06 204a13.71 13.71 0 0 0 19.41-19.38l-15.35-15.35h21.71a13.71 13.71 0 0 0 0-27.41h-21.74l15.35-15.38a13.71 13.71 0 0 0-19.35-19.38l-15.38 15.35v-21.74a13.71 13.71 0 1 0-27.41 0v21.72l-15.35-15.35a13.71 13.71 0 1 0-19.41 19.38l15.35 15.35h-21.71a13.71 13.71 0 0 0 0 27.41h21.74l-15.36 15.38a13.71 13.71 0 0 0 19.36 19.4l15.38-15.35zM786.21 210.34000000000003a13.71 13.71 0 1 0 27.41 0v-21.71L829 204a13.71 13.71 0 1 0 19.41-19.38L833 169.25h21.71a13.71 13.71 0 0 0 0-27.41H833l15.35-15.38A13.71 13.71 0 0 0 829 107.08000000000004l-15.35 15.35v-21.74a13.71 13.71 0 0 0-27.41 0v21.74l-15.38-15.35a13.71 13.71 0 1 0-19.41 19.38l15.38 15.35h-21.74a13.71 13.71 0 1 0 0 27.41h21.74l-15.36 15.38a13.71 13.71 0 0 0 19 19.72l0.34-0.34 15.35-15.35zM210.82 210.34000000000003a13.71 13.71 0 1 0 27.41 0v-21.71L253.58 204A13.71 13.71 0 0 0 273 184.60000000000002l-15.35-15.35h21.71a13.71 13.71 0 0 0 0-27.41h-21.75L273 126.46000000000004a13.71 13.71 0 0 0-19.38-19.38l-15.35 15.35v-21.74a13.71 13.71 0 1 0-27.41 0v21.74l-15.38-15.35a13.71 13.71 0 1 0-19.41 19.38l15.38 15.35H169.7a13.71 13.71 0 1 0 0 27.41h21.74l-15.35 15.38a13.71 13.71 0 0 0 19.38 19.4l15.35-15.35zM354.38 123.58000000000004a13.71 13.71 0 0 0 27.41 0v-21.74l15.35 15.35a13.71 13.71 0 0 0 19.41-19.35l-15.35-15.38h21.71a13.71 13.71 0 0 0 0-27.41h-21.74l15.35-15.35a13.71 13.71 0 0 0-19.35-19.41l-15.38 15.35v-21.71a13.71 13.71 0 0 0-27.41 0v21.74L339 20.32000000000005a13.71 13.71 0 0 0-19.41 19.35L335 55.049999999999955h-21.74a13.71 13.71 0 0 0 0 27.41H335l-15.35 15.35A13.71 13.71 0 0 0 339 117.22000000000003l15.38-15.35zM642.21 123.58000000000004a13.71 13.71 0 0 0 27.41 0v-21.74L685 117.20000000000005a13.71 13.71 0 0 0 19.41-19.35L689 82.46000000000004h21.71a13.71 13.71 0 1 0 0-27.41H689l15.35-15.35A13.71 13.71 0 0 0 685 20.289999999999964l-15.38 15.35v-21.71a13.71 13.71 0 1 0-27.41 0v21.74l-15.35-15.35a13.71 13.71 0 0 0-19.41 19.35l15.35 15.38h-21.71a13.71 13.71 0 1 0 0 27.41h21.74l-15.35 15.35a13.71 13.71 0 0 0 19.35 19.41l15.38-15.35z"  horiz-adv-x="1024" />

    
    <glyph glyph-name="12" unicode="&#58997;" d="M753.84 568.22C731.43 681.31 631.67 766.6 512 766.6s-219.47-85.29-241.88-198.38a191.78 191.78 0 0 1-141.89-185.37c0.11-105.92 86.06-191.69 192-191.59h383.52a191.78 191.78 0 0 1 185.37 141.89c27.56 102.27-33.01 207.51-135.28 235.07z m-50.09-322.16H320.2a137 137 0 0 0 0 274c0 105.88 85.86 191.74 191.8 191.74S703.75 625.94 703.75 520a137 137 0 0 0 0-274zM261.16 158.74a27.4 27.4 0 0 0 13.28-36.4l-23.15-49.64a27.4 27.4 0 1 0-49.67 23.15l23.15 49.67a27.4 27.4 0 0 0 36.4 13.28zM535.18 158.74a27.4 27.4 0 0 0 13.25-36.41l-23.15-49.64A27.4 27.4 0 0 0 475 94.53999999999996q0.28 0.64 0.59 1.27l23.15 49.67a27.4 27.4 0 0 0 36.4 13.26zM809.1 158.74a27.4 27.4 0 0 0 13.28-36.4l-23.15-49.64a27.4 27.4 0 1 0-49.67 23.15l23.15 49.67a27.4 27.4 0 0 0 36.4 13.28zM398.2 103.95000000000005a27.4 27.4 0 0 0 13.25-36.41L388.3 17.899999999999977a27.4 27.4 0 0 0-50.3 21.84q0.28 0.64 0.59 1.27l23.15 49.67A27.4 27.4 0 0 0 398.19 104zM665.32 103.95000000000005a27.4 27.4 0 0 0 13.25-36.41l-23.17-49.67a27.4 27.4 0 0 0-50.24 21.88q0.28 0.64 0.59 1.27l23.15 49.67A27.4 27.4 0 0 0 665.31 104z"  horiz-adv-x="1024" />

    
    <glyph glyph-name="11" unicode="&#58998;" d="M754.61 554.75c-22.48 113.46-122.56 199-242.64 199s-220.16-85.56-242.64-199A192.4 192.4 0 0 1 127 368.78c0.11-106.26 86.33-192.31 192.59-192.2h384.78a192.4 192.4 0 0 1 186 142.35c27.63 102.6-33.16 208.18-135.76 235.82z m-50.24-323.2H319.58a137.43 137.43 0 0 0 0 274.85c0 106.26 86.14 192.4 192.4 192.4s192.4-86.14 192.4-192.4a137.43 137.43 0 0 0 0-274.85zM287.84 116.47000000000003A27.49 27.49 0 0 0 301.16 80l-23.22-49.8a27.49 27.49 0 1 0-49.83 23.22l23.22 49.83a27.49 27.49 0 0 0 36.52 13.32zM452.75 116.47000000000003A27.49 27.49 0 0 0 466.07 80l-23.22-49.8A27.49 27.49 0 1 0 393 53.34000000000003l23.22 49.83a27.49 27.49 0 0 0 36.52 13.32zM617.66 116.47000000000003A27.49 27.49 0 0 0 631 80l-23.22-49.8a27.49 27.49 0 1 0-49.83 23.22l23.22 49.83a27.49 27.49 0 0 0 36.52 13.32zM782.57 116.47000000000003A27.49 27.49 0 0 0 795.89 80l-23.22-49.8a27.49 27.49 0 1 0-49.83 23.22L746 103.16999999999996a27.49 27.49 0 0 0 36.52 13.32z"  horiz-adv-x="1024" />

    
    <glyph glyph-name="25" unicode="&#58999;" d="M236.62 177.80999999999995c-95.48 46.14-135.47 160.94-89.33 256.42A192 192 0 0 0 270 536c22.43 113.15 122.28 198.5 242 198.5s219.61-85.35 242-198.53c102.35-27.74 162.83-133.2 135.08-235.55a192 192 0 0 0-101.56-122.56h-0.05a27.42 27.42 0 0 0-23.52 49.54 137.09 137.09 0 0 1-60 260.38c0 106-85.93 191.92-191.92 191.92s-191.92-85.94-191.92-191.94a137.09 137.09 0 0 1-58.84-261 27.43 27.43 0 1 0-24.68-49zM361.64 202a27.42 27.42 0 0 0 13.26-36.44l-23.18-49.66A27.43 27.43 0 1 0 302 139.10000000000002l23.2 49.68A27.42 27.42 0 0 0 361.64 202zM535.19 202a27.42 27.42 0 0 0 13.29-36.43L525.3 115.89999999999998a27.43 27.43 0 0 0-49.71 23.2l23.17 49.68a27.42 27.42 0 0 0 36.43 13.29zM708.75 202a27.42 27.42 0 0 0 13.32-36.41v-0.05l-23.2-49.68a27.42 27.42 0 0 0-49.68 23.2l23.17 49.68A27.42 27.42 0 0 0 708.77 202zM427 135.83000000000004a27.42 27.42 0 0 0 13.24-36.44L417 49.690000000000055a27.42 27.42 0 1 0-50 22.43q0.17 0.38 0.36 0.76l23.17 49.68a27.42 27.42 0 0 0 36.43 13.27zM602.42 135.83000000000004a27.42 27.42 0 0 0 13.24-36.44l-23.16-49.7a27.42 27.42 0 0 0-49.68 23.2L566 122.55999999999995a27.42 27.42 0 0 0 36.43 13.27z"  horiz-adv-x="1024" />

    
    <glyph glyph-name="17" unicode="&#59000;" d="M753.9 569.22C731.48 682.35 631.7 767.65 512 767.65s-219.5-85.31-241.92-198.43a191.83 191.83 0 0 1-141.95-185.41c0.11-105.94 86.08-191.74 192-191.63H703.8A191.83 191.83 0 0 1 889.22 334.1c27.56 102.29-33.03 207.56-135.32 235.12zM703.8 247H320.15a137 137 0 1 0 0 274c0 106 85.85 191.85 191.85 191.85S703.8 627 703.8 521a137 137 0 0 0 0-274zM594.35 101.92999999999995v21.73a13.7 13.7 0 0 0 27.4 0v-21.73l15.35 15.35a13.7 13.7 0 0 0 19.4-19.35l-15.35-15.37h21.7a13.7 13.7 0 0 0 0-27.4h-21.72l15.35-15.35a13.7 13.7 0 0 0-19.35-19.4l-15.37 15.35V14a13.7 13.7 0 1 0-27.4 0v21.78L579 20.42999999999995a13.7 13.7 0 0 0-19.4 19.35l15.4 15.37h-21.7a13.7 13.7 0 1 0 0 27.4H575l-15.37 15.35a13.7 13.7 0 0 0 19 19.74l0.34-0.34 15.38-15.3zM786.18 101.92999999999995v21.73a13.7 13.7 0 0 0 27.4 0v-21.73l15.35 15.35a13.7 13.7 0 0 0 19.4-19.35L833 82.55999999999995h21.7a13.7 13.7 0 1 0 0-27.4H833l15.35-15.35a13.7 13.7 0 0 0-19.35-19.4l-15.37 15.35V14a13.7 13.7 0 1 0-27.4 0v21.78l-15.35-15.35a13.7 13.7 0 0 0-19.4 19.35l15.35 15.37h-21.7a13.7 13.7 0 0 0 0 27.4h21.67l-15.34 15.35a13.7 13.7 0 0 0 19 19.74l0.34-0.34 15.38-15.3zM403.07 101.92999999999995v21.73a13.7 13.7 0 0 0 27.4 0v-21.73l15.35 15.35a13.7 13.7 0 0 0 19.4-19.35l-15.35-15.37h21.7a13.7 13.7 0 0 0 0-27.4h-21.72l15.37-15.35a13.71 13.71 0 1 0-19.37-19.4l-15.35 15.34V14a13.7 13.7 0 1 0-27.4 0v21.78l-15.37-15.35a13.7 13.7 0 0 0-19.4 19.35l15.4 15.37H362a13.7 13.7 0 0 0 0 27.4h21.73l-15.35 15.35a13.71 13.71 0 1 0 19.37 19.4L403.1 102zM211.79 101.92999999999995v21.73a13.7 13.7 0 0 0 27.4 0v-21.73l15.37 15.35a13.7 13.7 0 0 0 19.37-19.35l-15.33-15.37h21.73a13.7 13.7 0 0 0 0-27.4H258.6l15.35-15.35a13.71 13.71 0 1 0-19.37-19.4l-15.35 15.35V14a13.7 13.7 0 1 0-27.4 0v21.78l-15.37-15.35a13.7 13.7 0 0 0-19.37 19.35l15.35 15.37h-21.7a13.7 13.7 0 0 0 0 27.4h21.7l-15.37 15.35a13.71 13.71 0 1 0 19.37 19.4l15.35-15.3z"  horiz-adv-x="1024" />

    
    <glyph glyph-name="29" unicode="&#59001;" d="M235.86 180.86c-95.72 46.28-135.8 161.4-89.52 257.12a192.52 192.52 0 0 0 123 102C291.81 653.42 391.93 739 512 739s220.2-85.58 242.69-199.06C857.32 512.12 918 406.38 890.14 303.76a192.52 192.52 0 0 0-101.91-122.9h-0.06a27.5 27.5 0 0 0-23.59 49.68 137.45 137.45 0 0 1-60.15 261.11C704.44 597.89 618.29 684 512 684s-192.43-86.11-192.43-192.39a137.45 137.45 0 0 1-59-261.66 27.5 27.5 0 1 0-24.74-49.13zM238.56 130.90999999999997v21.8a13.75 13.75 0 0 0 27.49 0v-21.8l15.39 15.39a13.75 13.75 0 0 0 19.46-19.41l-15.41-15.39h21.8a13.75 13.75 0 1 0 0-27.49h-21.8l15.39-15.45a13.75 13.75 0 0 0-19.41-19.44L266 64.54999999999995v-21.8a13.75 13.75 0 0 0-27.49 0v21.8l-15.39-15.39a13.75 13.75 0 0 0-19.8 19.07l0.34 0.34L219.1 84h-21.78a13.75 13.75 0 1 0 0 27.49h21.8l-15.39 15.39a13.75 13.75 0 0 0 19.41 19.46l15.39-15.39zM411.69 130.90999999999997v21.8a13.75 13.75 0 0 0 27.49 0v-21.8l15.42 15.39a13.75 13.75 0 0 0 19.4-19.41l-15.35-15.39h21.77a13.75 13.75 0 1 0 0-27.49h-21.8L474 68.55999999999995a13.75 13.75 0 0 0-19.1-19.77l-0.34 0.34-15.39 15.42v-21.8a13.75 13.75 0 0 0-27.49 0v21.8l-15.38-15.4a13.75 13.75 0 0 0-20.24 18.6q0.39 0.42 0.8 0.81l15.4 15.44h-21.8a13.75 13.75 0 0 0 0 27.49h21.8l-15.39 15.39a13.75 13.75 0 1 0 19.44 19.46l15.39-15.39zM584.86 130.90999999999997v21.8a13.75 13.75 0 0 0 27.49 0v-21.8l15.39 15.39a13.75 13.75 0 0 0 19.44-19.41l-15.4-15.39h21.8a13.75 13.75 0 0 0 0-27.49h-21.8l15.39-15.45a13.75 13.75 0 0 0-19.1-19.77l-0.34 0.34-15.39 15.42v-21.8a13.75 13.75 0 0 0-27.49 0v21.8l-15.42-15.39a13.75 13.75 0 1 0-20.24 18.6q0.39 0.42 0.8 0.81l15.4 15.43h-21.77a13.75 13.75 0 1 0 0 27.49h21.8L550 126.87a13.75 13.75 0 0 0 19.44 19.46l15.39-15.39zM758 130.90999999999997v21.8a13.75 13.75 0 1 0 27.49 0v-21.8l15.39 15.39a13.75 13.75 0 0 0 19.46-19.41l-15.39-15.39h21.77a13.75 13.75 0 0 0 0-27.49h-21.8l15.39-15.45a13.75 13.75 0 1 0-18.6-20.24q-0.42 0.39-0.81 0.8l-15.39 15.42v-21.8a13.75 13.75 0 1 0-27.49 0v21.8l-15.45-15.39a13.75 13.75 0 1 0-20.24 18.6q0.39 0.42 0.81 0.81L738.56 84h-21.8a13.75 13.75 0 1 0 0 27.49h21.8l-15.39 15.39a13.75 13.75 0 0 0 19.41 19.46l15.42-15.4z"  horiz-adv-x="1024" />

    
    <glyph glyph-name="26" unicode="&#59002;" d="M199.18 189.51A27.43 27.43 0 0 0 212.44 153l-23.18-49.71a27.44 27.44 0 1 0-49.74 23.18l23.21 49.74a27.43 27.43 0 0 0 36.46 13.25zM480.31 189.51a27.43 27.43 0 0 0 13.3-36.45l-23.18-49.71a27.44 27.44 0 1 0-49.74 23.18l23.18 49.74a27.43 27.43 0 0 0 36.46 13.26zM754.65 189.51a27.43 27.43 0 0 0 13.3-36.45l-23.18-49.71A27.44 27.44 0 1 0 695 126.49000000000001l23.18 49.74a27.43 27.43 0 0 0 36.46 13.26zM343.15 134.64a27.43 27.43 0 0 0 13.3-36.45l-23.18-49.71a27.44 27.44 0 1 0-49.74 23.18l23.18 49.74a27.43 27.43 0 0 0 36.46 13.26zM617.48 134.64a27.43 27.43 0 0 0 13.3-36.45l-23.18-49.71a27.44 27.44 0 1 0-49.74 23.18l23.14 49.7a27.43 27.43 0 0 0 36.46 13.26zM871.21 134.64a27.43 27.43 0 0 0 13.26-36.46l-23.18-49.71a27.43 27.43 0 0 0-49.71 23.18l23.18 49.74a27.43 27.43 0 0 0 36.46 13.25zM519 712.28a46.14 46.14 0 0 0 4.17 2.39c24.83 12.43 55.3 20.74 84.83 20.74 89.87 0 164.82-65.07 181.64-151.35C851 567.27 896.07 510.4 896.07 442.8c0-80.79-64.47-146.3-144-146.3h-12.76a27.43 27.43 0 0 0 0 54.81H744a97 97 0 0 1 97.17 96.84C841.2 501.67 797.69 545 744 545c0 74.87-60.9 135.55-136 135.55-22.06 0-47-11.69-66.33-18.19a25.79 25.79 0 0 0-16.82-0.05 27.43 27.43 0 0 0-5.9 50zM564.78 296.54999999999995c46.2 7.52 84.39 48.61 84.39 96.76 0 53.5-43.51 96.84-97.17 96.84C552 565 491.1 625.7 416 625.7S280 565 280 490.15a97 97 0 0 1-97.17-96.84c0-48.2 38.43-89.35 84.77-96.76a27.43 27.43 0 1 0-5.79-54.55c-74.81 5.28-133.88 68.6-133.88 145.93 0 67.6 45.1 124.47 106.41 141.28C251.16 615.5 326.11 680.5699999999999 416 680.5699999999999s164.8-65.07 181.62-151.35C658.93 512.4 704 455.53 704 387.93c0-77.33-59-140.65-133.84-145.93a27.43 27.43 0 0 0-5.38 54.59z"  horiz-adv-x="1024" />

    
    <glyph glyph-name="24" unicode="&#59003;" d="M236.43 144.53999999999996C140.89 190.71000000000004 100.87 305.59000000000003 147 401.13A192.13 192.13 0 0 0 269.82 503C292.26 616.22 392.19 701.63 512 701.63S731.79 616.22 754.23 503c102.42-27.8 162.94-133.33 135.18-235.74A192.13 192.13 0 0 0 787.7 144.59000000000003h-0.05a27.44 27.44 0 0 0-23.54 49.58 137.18 137.18 0 0 1-60 260.56c0 106.07-86 192.05-192.05 192.05S320 560.77 320 454.7a137.18 137.18 0 0 1-58.9-261.13 27.45 27.45 0 1 0-24.69-49zM361.54 168.78999999999996a27.44 27.44 0 0 0 13.26-36.46l-23.18-49.71a27.45 27.45 0 1 0-49.74 23.21l23.21 49.71a27.44 27.44 0 0 0 36.46 13.28zM479 168.78999999999996a27.44 27.44 0 0 0 13.26-36.46l-23.18-49.71A27.44 27.44 0 1 0 419 105q0.17 0.38 0.36 0.76l23.18 49.71A27.44 27.44 0 0 0 479 168.79999999999995zM593.43 168.78999999999996a27.44 27.44 0 0 0 13.26-36.46l-23.19-49.74A27.44 27.44 0 1 0 533.43 105q0.17 0.38 0.36 0.76L557 155.51a27.44 27.44 0 0 0 36.46 13.28zM708.91 168.78999999999996a27.44 27.44 0 0 0 13.3-36.45L699 82.59000000000003a27.44 27.44 0 0 0-49.71 23.21l23.18 49.71a27.44 27.44 0 0 0 36.43 13.29z"  horiz-adv-x="1024" />

    
    <glyph glyph-name="20" unicode="&#59004;" d="M236.14 144.28999999999996c-95.64 46.22-135.71 161.22-89.49 256.86a192.34 192.34 0 0 0 122.91 102C292 616.46 392.06 702 512 702s220-85.5 242.46-198.87C857 475.3 917.59 369.65999999999997 889.8 267.13A192.34 192.34 0 0 0 788 144.34000000000003h-0.05a27.47 27.47 0 0 0-23.56 49.63A137.32 137.32 0 0 1 704.3 454.8C704.28 561 618.2 647 512 647s-192.23-86-192.23-192.22a137.32 137.32 0 0 1-58.94-261.41 27.48 27.48 0 1 0-24.72-49.08zM391.1 168.57000000000005a27.46 27.46 0 0 0 13.28-36.5l-23.21-49.77A27.46 27.46 0 1 0 331 104.75q0.17 0.38 0.36 0.76l23.21 49.77a27.46 27.46 0 0 0 36.49 13.3zM679.48 168.57000000000005a27.46 27.46 0 0 0 13.28-36.5l-23.21-49.77a27.46 27.46 0 0 0-50.12 22.47q0.17 0.38 0.36 0.76L643 155.27999999999997a27.46 27.46 0 0 0 36.49 13.3zM457.1 180.13l109.86 0 0-109.86-109.86 0 0 109.86Z"  horiz-adv-x="1024" />

    
    <glyph glyph-name="2" unicode="&#59005;" d="M597.64 395.88c-16.82 86.3-91.79 151.38-181.64 151.38s-164.89-65.08-181.71-151.38c-61.29-16.82-106.44-73.7-106.44-141.31 0-80.81 64.48-146.33 144.06-146.33H560c79.57 0 144.06 65.52 144.06 146.33 0.01 67.61-45.06 124.49-106.42 141.31zM649.2 260a97 97 0 0 0-97.2-96.89H279.92c-53.67 0-97.19 43.35-97.19 96.83a97 97 0 0 0 97.19 96.86c0 74.88 60.91 135.58 136 135.58s136-60.7 136-135.58c53.67 0 97.19-43.35 97.19-96.83zM582.79 524.9a109.76 109.76 0 0 0 144.72-164.31 27.89 27.89 0 0 0-19.54-8 27.44 27.44 0 0 0-18.27 47.91 54.88 54.88 0 0 1-73.81 80.67 27.44 27.44 0 0 0-33.09 43.77zM896.15 412.81a27.44 27.44 0 0 0-27.44-27.44h-27.44a27.44 27.44 0 0 0 0 54.88h27.44a27.44 27.44 0 0 0 27.44-27.44zM585.92 659a27.44 27.44 0 0 0 32.92-20.54l6.16-26.69a27.44 27.44 0 0 0-53.45-12.35l-6.17 26.73a27.44 27.44 0 0 0 20.55 32.92zM818 605.5699999999999a27.44 27.44 0 0 0 4.09-38.57l-17.29-21.33a27.44 27.44 0 1 0-43.91 32.92q0.62 0.82 1.3 1.6l17.29 21.35a27.44 27.44 0 0 0 38.58 4z"  horiz-adv-x="1024" />

    
    <glyph glyph-name="30" unicode="&#59006;" d="M319.94 507.47m-27.44 0a27.44 27.44 0 1 1 54.88 0 27.44 27.44 0 1 1-54.88 0ZM512 507.47m-27.44 0a27.44 27.44 0 1 1 54.88 0 27.44 27.44 0 1 1-54.88 0ZM704.06 507.47m-27.44 0a27.44 27.44 0 1 1 54.88 0 27.44 27.44 0 1 1-54.88 0ZM210.19 397.72m-27.44 0a27.44 27.44 0 1 1 54.88 0 27.44 27.44 0 1 1-54.88 0ZM411.39 397.72m-27.44 0a27.44 27.44 0 1 1 54.88 0 27.44 27.44 0 1 1-54.88 0ZM612.61 397.72m-27.44 0a27.44 27.44 0 1 1 54.88 0 27.44 27.44 0 1 1-54.88 0ZM813.81 397.72m-27.44 0a27.44 27.44 0 1 1 54.88 0 27.44 27.44 0 1 1-54.88 0ZM210.19 617.22m-27.44 0a27.44 27.44 0 1 1 54.88 0 27.44 27.44 0 1 1-54.88 0ZM411.39 617.22m-27.44 0a27.44 27.44 0 1 1 54.88 0 27.44 27.44 0 1 1-54.88 0ZM612.61 617.22m-27.44 0a27.44 27.44 0 1 1 54.88 0 27.44 27.44 0 1 1-54.88 0ZM813.81 617.22m-27.44 0a27.44 27.44 0 1 1 54.88 0 27.44 27.44 0 1 1-54.88 0ZM155.32 288h713.36a27.44 27.44 0 0 0 0-54.87H155.32a27.44 27.44 0 0 0 0 54.87zM155.32 178.22000000000003h713.36a27.44 27.44 0 1 0 0-54.87H155.32a27.44 27.44 0 1 0 0 54.87z"  horiz-adv-x="1024" />

    
    <glyph glyph-name="6" unicode="&#59007;" d="M236.46 162.42999999999995c-95.53 46.17-135.55 161-89.38 256.56a192.11 192.11 0 0 0 122.77 101.85C292.29 634.06 392.2 719.46 512 719.46s219.74-85.4 242.18-198.64c102.41-27.76 162.92-133.28 135.16-235.68a192.11 192.11 0 0 0-101.67-122.66h-0.05A27.44 27.44 0 0 0 764.08 212a137.17 137.17 0 0 1-60 260.53c0 106.06-86 192-192 192s-192-86-192-192a137.17 137.17 0 0 1-58.87-261.11 27.44 27.44 0 1 0-24.69-49zM368.36 186.67999999999995a27.43 27.43 0 0 0 13.3-36.45l-23.18-49.71a27.44 27.44 0 1 0-49.74 23.18l23.16 49.7a27.43 27.43 0 0 0 36.45 13.3zM702.91 160.53999999999996a41.15 41.15 0 0 0-34.79-74.59 41.15 41.15 0 1 0 34.79 74.59zM499.54 202.66999999999996h64.52a27.43 27.43 0 0 0 28.31-38.82L546 64.40999999999997a27.45 27.45 0 1 0-49.76 23.18l28.09 60.22h-67.8A27.43 27.43 0 0 0 432 187.58000000000004L478.34 287a27.44 27.44 0 1 0 49.74-23.18l-28.53-61.18z"  horiz-adv-x="1024" />

    
    <glyph glyph-name="5" unicode="&#59008;" d="M236.22 162.24c-95.61 46.2-135.66 161.17-89.46 256.76a192.28 192.28 0 0 0 122.88 102C292.1 634.27 392.1 719.74 512 719.74s220-85.47 242.41-198.81C856.91 493.15 917.47 387.54 889.69 285a192.28 192.28 0 0 0-101.78-122.71h-0.05a27.46 27.46 0 0 0-23.56 49.61 137.28 137.28 0 0 1-60.07 260.76c0 106.15-86 192.2-192.2 192.2s-192.2-86-192.2-192.2a137.28 137.28 0 0 1-58.92-261.36 27.47 27.47 0 1 0-24.71-49.06zM365.87 186.51A27.46 27.46 0 0 0 379.15 150l-23.2-49.75a27.46 27.46 0 1 0-49.78 23.2l23.23 49.78a27.46 27.46 0 0 0 36.48 13.29zM702.22 186.51A27.46 27.46 0 0 0 715.53 150l-23.2-49.75a27.47 27.47 0 1 0-49.78 23.23l23.2 49.75a27.46 27.46 0 0 0 36.48 13.31zM499.53 202.51999999999998h64.58a27.46 27.46 0 0 0 28.34-38.85L546 64.13a27.47 27.47 0 1 0-49.81 23.2l28.12 60.27h-67.83a27.46 27.46 0 0 0-24.57 39.81l46.4 99.53a27.46 27.46 0 1 0 49.78-23.2l-28.55-61.23z"  horiz-adv-x="1024" />

    
    <glyph glyph-name="1" unicode="&#59009;" d="M512 603.47c-121.21 0-219.47-98.26-219.47-219.47S390.79 164.52999999999997 512 164.52999999999997 731.47 262.78999999999996 731.47 384 633.21 603.47 512 603.47z m3.92-388a164.6 164.6 0 1 0 164.6 164.6 164.6 164.6 0 0 0-164.6-164.6zM512 768.0699999999999a27.43 27.43 0 0 0 27.43-27.43v-82.3a27.43 27.43 0 1 0-54.87 0v82.3A27.43 27.43 0 0 0 512 768.0699999999999zM783.6 655.6a27.43 27.43 0 0 0 0-38.8l-58.21-58.19a27.43 27.43 0 1 0-39.47 38.12l0.67 0.67 58.19 58.21a27.43 27.43 0 0 0 38.79 0zM896.07 384a27.43 27.43 0 0 0-27.43-27.43h-82.3a27.43 27.43 0 1 0 0 54.87h82.3A27.43 27.43 0 0 0 896.07 384zM783.6 112.39999999999998a27.43 27.43 0 0 0-38.8 0l-58.19 58.21a27.43 27.43 0 0 0 38.79 38.79l58.19-58.19a27.43 27.43 0 0 0 0-38.79zM512-0.07000000000005002a27.43 27.43 0 0 0-27.43 27.43v82.3a27.43 27.43 0 1 0 54.87 0v-82.3A27.43 27.43 0 0 0 512-0.07000000000005002zM240.4 112.39999999999998a27.43 27.43 0 0 0 0 38.8l58.21 58.19a27.43 27.43 0 0 0 39.47-38.12l-0.67-0.67-58.19-58.2a27.43 27.43 0 0 0-38.79 0zM127.93 384a27.43 27.43 0 0 0 27.43 27.43h82.3a27.43 27.43 0 1 0 0-54.87h-82.3A27.43 27.43 0 0 0 127.93 384zM240.4 655.6a27.43 27.43 0 0 0 38.8 0l58.19-58.21a27.43 27.43 0 0 0-38.12-39.47l-0.67 0.67-58.2 58.19a27.43 27.43 0 0 0 0 38.79z"  horiz-adv-x="1024" />

    
    <glyph glyph-name="13" unicode="&#59010;" d="M597.63 529.53C580.81 615.8399999999999 505.85 680.89 416 680.89s-164.83-65-181.65-151.33C173 512.74 127.9 455.84 127.9 388.27c0-80.82 64.47-146.34 144-146.34H560c79.56 0 144 65.52 144 146.31 0 67.6-45.06 124.5-106.37 141.29z m51.55-135.89A97 97 0 0 0 552 296.79999999999995H280c-53.66 0-97.18 43.35-97.18 96.82A97 97 0 0 0 280 490.46C280 565.3299999999999 340.86 626 416 626s136-60.69 136-135.56c53.66 0 97.18-43.35 97.18-96.82zM199.15 189.79999999999995a27.44 27.44 0 0 0 13.26-36.46l-23.19-49.74a27.44 27.44 0 1 0-49.74 23.18l23.21 49.74a27.44 27.44 0 0 0 36.46 13.28zM480.31 189.79999999999995a27.44 27.44 0 0 0 13.3-36.45l-23.2-49.75a27.44 27.44 0 1 0-49.74 23.18l23.18 49.74a27.44 27.44 0 0 0 36.45 13.3zM754.67 189.79999999999995A27.44 27.44 0 0 0 768 153.35000000000002l-23.24-49.75A27.44 27.44 0 1 0 695 126.77999999999997l23.18 49.74a27.44 27.44 0 0 0 36.45 13.3zM343.14 134.92999999999995a27.44 27.44 0 0 0 13.3-36.45l-23.18-49.71a27.44 27.44 0 1 0-49.74 23.18l23.18 49.74a27.44 27.44 0 0 0 36.45 13.3zM617.49 134.92999999999995a27.44 27.44 0 0 0 13.3-36.45l-23.18-49.71a27.44 27.44 0 1 0-49.74 23.18l23.13 49.7a27.44 27.44 0 0 0 36.45 13.3zM871.24 134.92999999999995a27.44 27.44 0 0 0 13.26-36.46l-23.18-49.71A27.44 27.44 0 0 0 811 70.63q0.28 0.65 0.59 1.28l23.18 49.74a27.44 27.44 0 0 0 36.46 13.28zM519 712.63a46.15 46.15 0 0 0 4.17 2.39c24.83 12.43 55.31 20.74 84.83 20.74 89.88 0 164.83-65 181.65-151.36C851 567.61 896.1 510.71 896.1 443.11c0-80.8-64.47-146.31-144-146.31h-12.77a27.44 27.44 0 0 0 0 54.82H744a97 97 0 0 1 97.18 96.85c0 53.47-43.51 96.82-97.18 96.82 0 74.87-60.91 135.56-136 135.56-22.06 0-47-11.66-66.34-18.19a25.79 25.79 0 0 0-16.82-0.05 27.44 27.44 0 0 0-5.9 50z"  horiz-adv-x="1024" />

    
    <glyph glyph-name="21" unicode="&#59011;" d="M278.42 549.9200000000001m-27.47 0a27.47 27.47 0 1 1 54.94 0 27.47 27.47 0 1 1-54.94 0ZM182.31 466.51m-27.47 0a27.47 27.47 0 1 1 54.94 0 27.47 27.47 0 1 1-54.94 0ZM374.63 439a27.47 27.47 0 1 0 27.45 27.47A27.47 27.47 0 0 0 374.63 439zM182.31 631.22m-27.47 0a27.47 27.47 0 1 1 54.94 0 27.47 27.47 0 1 1-54.94 0ZM374.63 603.74a27.47 27.47 0 1 0 27.45 27.47 27.47 27.47 0 0 0-27.45-27.47zM182.31 136.72000000000003m-27.47 0a27.47 27.47 0 1 1 54.94 0 27.47 27.47 0 1 1-54.94 0ZM292.24 164.16999999999996h55a27.47 27.47 0 0 0 0-54.95h-55a27.47 27.47 0 0 0 0 54.95zM651.95 329.12A164.84 164.84 0 1 1 484.52 492a27.47 27.47 0 0 1 54.95 0v2a109.89 109.89 0 1 0 109.89-109.94v-0.06H154.84a27.47 27.47 0 1 1 0-54.95h494.52c0.88 0 1.73 0 2.58 0.11zM810.14 274.05999999999995a82.42 82.42 0 1 0 8.13-164.65 27.47 27.47 0 0 0-4.45 54.67v0.19h0.38a27.47 27.47 0 0 1 1.65 54.89l-1.65-0.05H154.84a27.47 27.47 0 1 0 0 54.95zM649 141.75v-10.11a27.47 27.47 0 0 0-27-22.42h-55a27.47 27.47 0 0 0 0 54.95h55a27.47 27.47 0 0 0 27-22.42zM457.05 136.69000000000005m-27.47 0a27.47 27.47 0 1 1 54.94 0 27.47 27.47 0 1 1-54.94 0Z"  horiz-adv-x="1024" />

    
    <glyph glyph-name="32" unicode="&#59012;" d="M182.63 81.35000000000002m-27.52 0a27.52 27.52 0 1 1 55.04 0 27.52 27.52 0 1 1-55.04 0ZM292.74 108.82000000000005h55.09a27.52 27.52 0 1 0 0-55h-55.12a27.52 27.52 0 0 0 0 55zM457.86 53.83000000000004a27.52 27.52 0 1 0 27.49 27.52 27.52 27.52 0 0 0-27.49-27.52zM650.49 384H155.11a27.52 27.52 0 0 0 0 55h495.36a110.08 110.08 0 1 1-110.1 110.06v-2a27.52 27.52 0 0 0-55 0.55v1.38A167.24 167.24 0 1 0 659 384q-4.26-0.11-8.53 0zM812.25 273.85H155.11a27.52 27.52 0 1 0 0 55h660.47a13.66 13.66 0 0 0 1.51-0.06 27.52 27.52 0 0 1-1.9 55V384a27.52 27.52 0 1 0 4.46 54.71 82.56 82.56 0 0 0-7.4-164.9zM810.58 218.80999999999995A82.56 82.56 0 0 0 819.66 54a27.52 27.52 0 0 0-4.46 54.71v0.25h0.39a27.52 27.52 0 0 1 2.15 54.93q-1.07-0.08-2.15-0.08H155.11a27.52 27.52 0 0 0 0 55h655.47zM567.94 108.82000000000005H623a27.52 27.52 0 0 0 0-55h-55.09a27.52 27.52 0 0 0 0 55zM182.66 521.53A27.52 27.52 0 1 0 210.15 549a27.52 27.52 0 0 0-27.49-27.52zM292.74 576.51h110.05a27.52 27.52 0 0 0 0-55H292.74a27.52 27.52 0 0 0 0 55z"  horiz-adv-x="1024" />

    
    <glyph glyph-name="19" unicode="&#59013;" d="M715.76 232.92999999999995h-54.88a164.81 164.81 0 1 1-289.92 0h-62.72c-45.42 112.54 9 240.59 121.52 286s240.59-9 286-121.52a219.74 219.74 0 0 0 0-164.49zM512 699.88a27.47 27.47 0 0 0 27.47-27.47V590a27.47 27.47 0 1 0-54.94 0v82.4A27.47 27.47 0 0 0 512 699.88zM783.93 587.26a27.47 27.47 0 0 0 0-38.85l-58.29-58.26A27.47 27.47 0 0 0 686.81 529l58.26 58.29a27.47 27.47 0 0 0 38.84 0zM896.55 315.33000000000004a27.47 27.47 0 0 0-27.47-27.47h-82.4a27.47 27.47 0 0 0 0 54.94h82.4a27.47 27.47 0 0 0 27.47-27.47zM127.45 315.33000000000004a27.47 27.47 0 0 0 27.47 27.47h82.4a27.47 27.47 0 0 0 0-54.94h-82.4a27.47 27.47 0 0 0-27.47 27.47zM240.07 587.26a27.47 27.47 0 0 0 38.85 0L337.19 529A27.47 27.47 0 1 0 299 489.46l-0.68 0.68-58.25 58.26a27.47 27.47 0 0 0 0 38.84zM154.92 232.92999999999995h714.16a27.47 27.47 0 0 0 0-54.94H154.92a27.47 27.47 0 1 0 0 54.94zM154.92 123.05999999999995h714.16a27.47 27.47 0 0 0 0-54.94H154.92a27.47 27.47 0 1 0 0 54.94z"  horiz-adv-x="1024" />

    
    <glyph glyph-name="27" unicode="&#59014;" d="M237.22 154.05999999999995c-95.27 46-135.18 160.59-89.14 255.86a191.59 191.59 0 0 0 122.43 101.57c22.38 112.91 122 198.07 241.52 198.07s219.14-85.17 241.52-198.1c102.13-27.68 162.47-132.91 134.79-235a191.59 191.59 0 0 0-101.42-122.35h-0.05a27.36 27.36 0 0 0-23.47 49.44 136.79 136.79 0 0 1-59.86 259.82c0 105.77-85.74 191.51-191.51 191.51S320.52 569.1 320.52 463.34a136.79 136.79 0 0 1-58.71-260.39 27.37 27.37 0 1 0-24.62-48.89zM402.59 159.86v21.69a13.68 13.68 0 1 0 27.36 0v-21.69l15.32 15.32a13.68 13.68 0 0 0 19.7-19l-0.33-0.34-15.32-15.35H471a13.68 13.68 0 0 0 0-27.36h-21.71l15.32-15.32a13.68 13.68 0 0 0-19.31-19.37L430 93.78999999999996v-21.67a13.68 13.68 0 0 0-27.36 0v21.69l-15.32-15.32a13.68 13.68 0 0 0-19.37 19.31l15.32 15.35h-21.71a13.68 13.68 0 0 0 0 27.36h21.69l-15.32 15.32a13.68 13.68 0 0 0 19.31 19.37l15.35-15.32zM594.1 159.86v21.69a13.68 13.68 0 1 0 27.36 0v-21.69l15.32 15.32a13.68 13.68 0 0 0 19.7-19l-0.33-0.34-15.32-15.35h21.67a13.68 13.68 0 1 0 0-27.36h-21.7l15.32-15.32a13.68 13.68 0 0 0-19.31-19.37l-15.35 15.32v-21.67a13.68 13.68 0 0 0-27.36 0v21.72l-15.32-15.32a13.68 13.68 0 0 0-19.37 19.31l15.32 15.35h-21.67a13.68 13.68 0 0 0 0 27.36h21.69l-15.32 15.32a13.68 13.68 0 0 0 19.31 19.37l15.35-15.32z"  horiz-adv-x="1024" />

    
    <glyph glyph-name="33" unicode="&#59015;" d="M793 548.5699999999999c-98.47 56.72-224.27 22.89-281-75.57a205.76 205.76 0 0 1-75.57 75.57c-98.43 56.72-224.27 22.89-281-75.57S132.54 248.73000000000002 231 192s224.27-22.89 281 75.57A205.76 205.76 0 0 1 587.57 192c98.46-56.73 224.27-22.89 281 75.57s22.89 224.27-75.57 281zM333.68 219.39999999999998a150.89 150.89 0 1 0 150.89 150.88A150.89 150.89 0 0 0 333.68 219.39999999999998z m358.56 0a150.89 150.89 0 1 0 150.89 150.88A150.89 150.89 0 0 0 692.24 219.39999999999998zM210.23 630.9100000000001m-27.43 0a27.43 27.43 0 1 1 54.86 0 27.43 27.43 0 1 1-54.86 0ZM512 630.9100000000001m-27.43 0a27.43 27.43 0 1 1 54.86 0 27.43 27.43 0 1 1-54.86 0ZM813.77 630.9100000000001m-27.43 0a27.43 27.43 0 1 1 54.86 0 27.43 27.43 0 1 1-54.86 0ZM210.23 137.09000000000003m-27.43 0a27.43 27.43 0 1 1 54.86 0 27.43 27.43 0 1 1-54.86 0ZM512 137.09000000000003m-27.43 0a27.43 27.43 0 1 1 54.86 0 27.43 27.43 0 1 1-54.86 0ZM813.77 137.09000000000003m-27.43 0a27.43 27.43 0 1 1 54.86 0 27.43 27.43 0 1 1-54.86 0Z"  horiz-adv-x="1024" />

    
    <glyph glyph-name="22" unicode="&#59016;" d="M236.86 154.54999999999995c-95.37 46.11-135.3 160.81-89.19 256.18a191.81 191.81 0 0 0 122.52 101.65c22.4 113.07 122.16 198.3 241.8 198.3s219.39-85.24 241.8-198.3c102.25-27.69 162.69-133 135-235.29A191.81 191.81 0 0 0 787.2 154.58000000000004h-0.05a27.39 27.39 0 0 0-23.5 49.49 136.95 136.95 0 0 1-59.93 260.13c0 105.89-85.84 191.73-191.73 191.73S320.26 570.0899999999999 320.26 464.2a136.95 136.95 0 0 1-58.78-260.7 27.4 27.4 0 1 0-24.65-48.95zM429.82 57.32000000000005c-22.68 0-41.08 19.61-41.08 43.82q0 24.2 41.08 65.74 41.08-41.54 41.08-65.74c0-24.21-18.4-43.82-41.08-43.82zM594.16 57.32000000000005c-22.68 0-41.08 19.61-41.08 43.82q0 24.2 41.08 65.74 41.08-41.54 41.08-65.74c0-24.21-18.4-43.82-41.08-43.82z"  horiz-adv-x="1024" />

    
    <glyph glyph-name="3" unicode="&#59017;" d="M754.33 473.47C731.87 586.79 631.92 672.25 512 672.25s-219.92-85.46-242.37-198.78a192.17 192.17 0 0 1-142.18-185.75c0.11-106.13 86.23-192.08 192.36-192h384.33a192.17 192.17 0 0 1 185.75 142.21C917.5 340.4 856.8 445.86 754.33 473.47z m-50.19-322.82H319.81a137.26 137.26 0 0 0 0 274.52c0 106.13 86 192.17 192.17 192.17s192.17-86 192.17-192.17a137.26 137.26 0 1 0 0-274.52z"  horiz-adv-x="1024" />

    
    <glyph glyph-name="15" unicode="&#59018;" d="M754 569.28c-22.42 113.16-122.23 198.5-242 198.5s-219.6-85.34-242-198.5a191.89 191.89 0 0 1-142-185.47c0.11-106 86.1-191.8 192.08-191.7h383.78a191.89 191.89 0 0 1 185.48 142c27.57 102.3-33.04 207.6-135.34 235.17z m-50.14-322.34H320.09a137.06 137.06 0 1 0 0 274.13C320.09 627 406 713 512 713s191.86-86 191.86-191.94a137.06 137.06 0 1 0 0-274.13zM621.63 101.84000000000003v21.74a13.71 13.71 0 0 0 27.41 0v-21.74l15.35 15.35a13.71 13.71 0 0 0 19.41-19.35l-15.35-15.38h21.71a13.71 13.71 0 0 0 0-27.41h-21.74l15.35-15.35a13.71 13.71 0 0 0-19.35-19.41L649 35.639999999999986v-21.71a13.71 13.71 0 1 0-27.41 0v21.74l-15.35-15.35a13.71 13.71 0 0 0-19.41 19.35L602.22 55h-21.71a13.71 13.71 0 0 0 0 27.41h21.74l-15.35 15.4a13.71 13.71 0 0 0 19.35 19.41l15.38-15.35zM374.91 123.58000000000004a13.71 13.71 0 0 0 27.41 0v-21.74l15.35 15.35a13.71 13.71 0 0 0 19.41-19.35l-15.35-15.38h21.71a13.71 13.71 0 0 0 0-27.41h-21.73l15.35-15.35a13.71 13.71 0 0 0-19.35-19.41l-15.38 15.35v-21.71a13.71 13.71 0 1 0-27.41 0v21.74l-15.35-15.35a13.71 13.71 0 0 0-19.41 19.35L355.5 55h-21.71a13.71 13.71 0 0 0 0 27.41h21.74l-15.35 15.35a13.71 13.71 0 0 0 19.35 19.41l15.38-15.35z"  horiz-adv-x="1024" />

    
    <glyph glyph-name="31" unicode="&#59019;" d="M278.72 508.52m-27.44 0a27.44 27.44 0 1 1 54.88 0 27.44 27.44 0 1 1-54.88 0ZM182.74 425.16m-27.44 0a27.44 27.44 0 1 1 54.88 0 27.44 27.44 0 1 1-54.88 0ZM374.81 397.72a27.44 27.44 0 1 0 27.41 27.44 27.44 27.44 0 0 0-27.41-27.44zM182.74 589.6800000000001m-27.44 0a27.44 27.44 0 1 1 54.88 0 27.44 27.44 0 1 1-54.88 0ZM649.19 288H155.3a27.44 27.44 0 1 0 0 54.88h493.89a109.75 109.75 0 1 1-109.77 109.7v-1.93a27.44 27.44 0 0 0-54.88 0.55v1.4A164.63 164.63 0 1 0 649.19 288zM374.81 562.24a27.44 27.44 0 1 0 27.41 27.44 27.44 27.44 0 0 0-27.41-27.44zM155.3 205.64999999999998h713.4a27.44 27.44 0 1 0 0-54.88H155.3a27.44 27.44 0 0 0 0 54.88z"  horiz-adv-x="1024" />

    
    <glyph glyph-name="8" unicode="&#59020;" d="M754 554.85c-22.46 112.69-122.26 197.66-242 197.66s-219.56-85-242-197.66c-83.83-22.49-142.05-98.24-142-184.7 0.11-105.53 86.1-191 192.07-190.89h383.78c86.82-0.09 162.88 57.89 185.47 141.37C916.89 422.54 856.29 527.4 754 554.85z m-50.11-321H320.1C244.4 233.86 183 295 183 370.35s61.4 136.49 137.1 136.49c0 105.53 85.9 191.08 191.9 191.08s191.88-85.55 191.88-191.08c75.69 0 137.06-61.11 137.06-136.49s-61.39-136.49-137.09-136.49zM512 15.490000000000009c-22.7 0-41.12 19.54-41.12 43.68q0 24.16 41.12 65.51 41.12-41.36 41.12-65.51c-0.03-24.17-18.45-43.68-41.12-43.68z"  horiz-adv-x="1024" />

    
    <glyph glyph-name="14" unicode="&#59021;" d="M582.61 549.14A109.5 109.5 0 0 0 727 385.22l-0.05 0.05a27.37 27.37 0 1 0-39.29 38.13q0.79 0.81 1.65 1.56a54.75 54.75 0 0 1-73.61 80.48l-0.05 0.05a27.37 27.37 0 0 0-33 43.64zM895.21 437.31a27.37 27.37 0 0 0-27.37-27.37h-27.38a27.37 27.37 0 0 0 0 54.75h27.37a27.37 27.37 0 0 0 27.38-27.38zM585.73 682.95a27.37 27.37 0 0 0 32.84-20.5l6.13-26.64a27.37 27.37 0 0 0-53.33-12.32l-6.16 26.66A27.37 27.37 0 0 0 585.73 683zM817.27 629.5899999999999a27.37 27.37 0 0 0 4.05-38.49l-17.25-21.27a27.37 27.37 0 0 0-43.4 33.37q0.42 0.54 0.86 1.07l17.25 21.27a27.37 27.37 0 0 0 38.49 4.05zM565.37 188.37c45.58 8 83.49 48.86 83.49 96.47a96.77 96.77 0 0 1-96.93 96.61c0 74.68-60.77 135.23-135.7 135.23s-135.75-60.56-135.75-135.24a96.77 96.77 0 0 1-96.93-96.61c0-47.69 39.17-88.64 84.92-96.52a27.37 27.37 0 0 0-4.52-54.56c-75.36 4.49-135.15 68-135.15 145.74 0 67.42 45 124.17 106.16 141 16.81 86.09 91.57 151 181.22 151s164.47-64.91 181.25-151c61.16-16.78 106.16-73.53 106.16-141 0-77.11-58.86-140.27-133.45-145.61a27.37 27.37 0 0 0-4.76 54.5zM403.28 185.82000000000005v21.71a13.69 13.69 0 0 0 27.37 0v-21.71L446 201.14999999999998a13.7 13.7 0 0 0 19.38-19.35L450 166.47000000000003h21.71a13.69 13.69 0 0 0 0-27.37H450l15.33-15.33A13.7 13.7 0 1 0 446 104.38l-15.33 15.33V98a13.69 13.69 0 0 0-27.37 0v21.74L388 104.38a13.7 13.7 0 1 0-19.38 19.35l15.33 15.33h-21.73a13.69 13.69 0 0 0 0 27.37h21.71l-15.36 15.37a13.7 13.7 0 1 0 19.35 19.38l15.33-15.36z"  horiz-adv-x="1024" />

    
    <glyph glyph-name="7" unicode="&#59022;" d="M498.32 159.55999999999995v21.7a13.68 13.68 0 0 0 27.37 0v-21.7L541 174.89a13.68 13.68 0 0 0 19.38-19.32l-15.33-15.35h21.68a13.68 13.68 0 0 0 0-27.37H545l15.33-15.33A13.68 13.68 0 0 0 541 78.13999999999999l-15.35 15.33v-21.68a13.68 13.68 0 0 0-27.37 0v21.7L483 78.16999999999996a13.68 13.68 0 0 0-19.38 19.32l15.33 15.35h-21.69a13.68 13.68 0 0 0 0 27.37H479l-15.33 15.33A13.68 13.68 0 0 0 483 174.91999999999996l15.35-15.33zM236.14 152.22000000000003c-95.64 46.22-135.71 161.22-89.49 256.86a192.34 192.34 0 0 0 122.91 102C292 624.4 392.06 709.9 512 709.9S732 624.4 754.49 511C857 483.23 917.59 377.59000000000003 889.8 275.07000000000005A192.34 192.34 0 0 0 788 152.27999999999997h-0.05a27.47 27.47 0 0 0-23.56 49.63 137.32 137.32 0 0 1-60.09 260.83C704.28 568.89 618.2 655 512 655s-192.23-86.11-192.23-192.29a137.32 137.32 0 0 1-58.94-261.41 27.48 27.48 0 1 0-24.72-49.08zM391.1 176.5a27.46 27.46 0 0 0 13.28-36.5l-23.21-49.77A27.46 27.46 0 1 0 331 112.67999999999995q0.17 0.38 0.36 0.76l23.21 49.77a27.46 27.46 0 0 0 36.49 13.3zM679.48 176.5a27.46 27.46 0 0 0 13.28-36.5l-23.21-49.77a27.46 27.46 0 1 0-50.12 22.47q0.17 0.38 0.36 0.76L643 163.21000000000004a27.46 27.46 0 0 0 36.49 13.3z"  horiz-adv-x="1024" />

    
    <glyph glyph-name="16" unicode="&#59023;" d="M754 569.3199999999999C731.6 682.5 631.77 767.86 512 767.86s-219.62-85.35-242-198.54a191.93 191.93 0 0 1-142-185.51c0-106 86-191.81 192-191.74h383.9a191.93 191.93 0 0 1 185.51 142C917 436.42 856.38 541.75 754 569.3199999999999z m-50.1-322.41H320a137.09 137.09 0 1 0 0 274.18c0 106 86 191.91 192 191.91s191.9-85.91 191.9-191.91a137.09 137.09 0 0 0 0-274.18zM690.2 101.77999999999997v21.75a13.71 13.71 0 0 0 27.42 0v-21.74L733 117.13999999999999a13.71 13.71 0 0 0 19.41-19.36L737 82.39999999999998h21.72a13.71 13.71 0 0 0 0-27.42H737l15.35-15.35A13.71 13.71 0 0 0 733 20.210000000000036l-15.38 15.35v-21.72a13.71 13.71 0 0 0-27.42 0v21.75l-15.35-15.35a13.71 13.71 0 0 0-19.41 19.36l15.34 15.4h-21.71a13.71 13.71 0 0 0 0 27.42h21.74l-15.35 15.35a13.71 13.71 0 0 0 19.36 19.41l15.38-15.35zM498.27 101.77999999999997v21.75a13.71 13.71 0 1 0 27.42 0v-21.74L541 117.13999999999999a13.71 13.71 0 0 0 19.41-19.36L545.1 82.39999999999998h21.72a13.71 13.71 0 0 0 0-27.42h-21.75l15.35-15.35a13.71 13.71 0 0 0-19.36-19.41l-15.38 15.35v-21.72a13.71 13.71 0 1 0-27.42 0v21.74l-15.35-15.35a13.71 13.71 0 0 0-19.41 19.36l15.35 15.4h-21.71a13.71 13.71 0 0 0 0 27.42h21.74l-15.35 15.35a13.71 13.71 0 0 0 19.36 19.41l15.38-15.35zM306.34 101.77999999999997v21.75a13.71 13.71 0 0 0 27.42 0v-21.74l15.35 15.35a13.71 13.71 0 0 0 19.41-19.36l-15.35-15.38h21.72a13.71 13.71 0 1 0 0-27.42h-21.75l15.35-15.35a13.71 13.71 0 0 0-19.36-19.41l-15.38 15.35v-21.72a13.71 13.71 0 0 0-27.42 0v21.74L291 20.24000000000001a13.71 13.71 0 0 0-19.41 19.36l15.34 15.4h-21.72a13.71 13.71 0 0 0 0 27.42H287l-15.4 15.33a13.71 13.71 0 0 0 19.4 19.41l15.38-15.35z"  horiz-adv-x="1024" />

    
    <glyph glyph-name="28" unicode="&#59024;" d="M238 153.11C143 199 103.21 313.24 149.12 408.24A191 191 0 0 0 271.2 509.51C293.52 622.0899999999999 392.87 707 512 707s218.51-84.92 240.82-197.53c101.83-27.6 162-132.53 134.4-234.36a191 191 0 0 0-101.12-122h-0.05a27.28 27.28 0 0 0-23.41 49.29A136.4 136.4 0 0 1 703 461.5c0 105.46-85.49 191-191 191s-191-85.49-191-191a136.4 136.4 0 0 1-58.54-259.64A27.29 27.29 0 1 0 238 153.11zM340.17 162.11v21.63a13.64 13.64 0 1 0 27.28 0v-21.61l15.28 15.28A13.65 13.65 0 0 0 402 158.13l-15.28-15.28h21.61a13.64 13.64 0 0 0 0-27.28h-21.6l15.27-15.3A13.64 13.64 0 0 0 382.75 81l-15.3 15.28v-21.63a13.64 13.64 0 0 0-27.28 0v21.61L324.89 81a13.65 13.65 0 1 0-19.31 19.29l15.28 15.28h-21.61a13.64 13.64 0 1 0 0 27.28h21.63l-15.28 15.3a13.64 13.64 0 0 0 19.26 19.29l15.3-15.28zM498.39 162.11v21.63a13.64 13.64 0 1 0 27.28 0v-21.61l15.28 15.28a13.65 13.65 0 0 0 19.31-19.29L545 142.85000000000002h21.61a13.64 13.64 0 1 0 0-27.28H545l15.28-15.3A13.64 13.64 0 0 0 541 81l-15.3 15.28v-21.63a13.64 13.64 0 1 0-27.28 0v21.61L483.11 81a13.65 13.65 0 1 0-19.31 19.29l15.28 15.28h-21.61a13.64 13.64 0 0 0 0 27.28h21.63l-15.28 15.3a13.64 13.64 0 0 0 19.26 19.29l15.3-15.28zM652.84 162.11v21.63a13.64 13.64 0 1 0 27.28 0v-21.61l15.3 15.28a13.64 13.64 0 0 0 19.29-19.29l-15.28-15.28H721a13.64 13.64 0 1 0 0-27.28h-21.59l15.3-15.3A13.64 13.64 0 0 0 695.43 81l-15.28 15.28v-21.63a13.64 13.64 0 0 0-27.28 0v21.61L637.57 81a13.64 13.64 0 0 0-19.62 19l0.33 0.33 15.28 15.28h-21.64a13.64 13.64 0 1 0 0 27.28h21.63l-15.28 15.3a13.64 13.64 0 1 0 19 19.62l0.33-0.33 15.28-15.28z"  horiz-adv-x="1024" />

    
    <glyph glyph-name="4" unicode="&#59025;" d="M582.79 557a109.77 109.77 0 0 0 144.7-164.32l-0.05 0.05a27.44 27.44 0 1 0-39.38 38.23q0.79 0.82 1.65 1.57a54.88 54.88 0 0 1-73.79 80.68l-0.05 0.05A27.44 27.44 0 0 0 582.79 557zM896.15 444.89a27.44 27.44 0 0 0-27.44-27.44h-27.45a27.44 27.44 0 1 0 0 54.88h27.44a27.44 27.44 0 0 0 27.45-27.44zM585.92 691.13a27.44 27.44 0 0 0 32.92-20.55l6.15-26.7a27.44 27.44 0 0 0-53.46-12.35l-6.17 26.73a27.44 27.44 0 0 0 20.55 32.92zM818 637.64a27.44 27.44 0 0 0 4.06-38.58l-17.29-21.32a27.44 27.44 0 0 0-43.51 33.45q0.42 0.55 0.87 1.07l17.29 21.32a27.44 27.44 0 0 0 38.58 4.06zM369.45 177.57000000000005a27.44 27.44 0 0 0 13.3-36.46l-23.19-49.7a27.44 27.44 0 0 0-49.73 23.19L333 164.28999999999996a27.44 27.44 0 0 0 36.46 13.3zM496.48 177.57000000000005a27.44 27.44 0 0 0 13.27-36.47l-23.19-49.7a27.44 27.44 0 0 0-49.73 23.19l23.17 49.7a27.44 27.44 0 0 0 36.46 13.28zM565.5 195.36c45.69 8 83.7 49 83.7 96.71a97 97 0 0 1-97.2 96.84c0 74.86-60.92 135.56-136 135.56s-136.06-60.7-136.06-135.56a97 97 0 0 1-97.17-96.84v-0.07c0-47.8 39.27-88.86 85.13-96.76a27.44 27.44 0 0 0-4.53-54.69c-75.55 4.5-135.48 68.19-135.48 146.1 0 67.59 45.11 124.45 106.42 141.3 16.85 86.31 91.79 151.37 181.67 151.37S580.81 514.26 597.63 428c61.31-16.82 106.42-73.71 106.42-141.33 0-77.3-59-140.61-133.78-146a27.44 27.44 0 0 0-4.77 54.64z"  horiz-adv-x="1024" />

    
    <glyph glyph-name="9" unicode="&#59026;" d="M753.88 555.51C731.47 668.62 631.7 753.9300000000001 512 753.9300000000001s-219.49-85.3-241.91-198.42a191.81 191.81 0 0 1-141.92-185.4c0.11-105.94 86.07-191.73 192-191.62h383.62a191.81 191.81 0 0 1 185.4 141.91c27.56 102.29-33.02 207.6-135.31 235.11z m-50.09-322.22H320.16a137 137 0 0 0 0 274c0 105.96 85.84 191.83 191.84 191.83s191.81-85.88 191.81-191.81a137 137 0 0 0 0-274zM361.26 14.07000000000005c-22.69 0-41.1 19.62-41.1 43.84q0 24.25 41.1 65.76 41.1-41.51 41.1-65.76c0.01-24.22-18.36-43.84-41.1-43.84zM512 14.07000000000005c-22.69 0-41.1 19.62-41.1 43.84q0 24.25 41.1 65.76 41.1-41.51 41.1-65.76c-0.02-24.22-18.43-43.84-41.1-43.84zM662.69 14.07000000000005c-22.69 0-41.1 19.62-41.1 43.84q0 24.25 41.1 65.76 41.1-41.51 41.1-65.76c0-24.22-18.41-43.84-41.1-43.84z"  horiz-adv-x="1024" />

    
    <glyph glyph-name="23" unicode="&#59027;" d="M237.12 164.51999999999998c-95.29 46.07-135.19 160.67-89.11 256A191.64 191.64 0 0 0 270.42 522C292.81 635 392.47 720.19 512 720.19S731.21 635 753.6 522c102.16-27.69 162.52-133 134.83-235.11A191.64 191.64 0 0 0 787 164.58000000000004h-0.05a27.37 27.37 0 0 0-23.5 49.42 136.83 136.83 0 0 1-59.88 259.9c0 105.8-85.77 191.56-191.56 191.56S320.45 579.69 320.45 473.9a136.83 136.83 0 0 1-58.73-260.47 27.38 27.38 0 1 0-24.63-48.9zM361.49 47.809999999999945c-22.66 0-41 19.59-41 43.79q0 24.22 41 65.68 41-41.46 41-65.68c0.05-24.2-18.34-43.79-41-43.79zM512 47.809999999999945c-22.66 0-41 19.59-41 43.79q0 24.22 41 65.68 41-41.46 41-65.68c0.06-24.2-18.33-43.79-41-43.79zM662.52 47.809999999999945c-22.66 0-41 19.59-41 43.79q0 24.22 41 65.68 41-41.46 41-65.68c0.05-24.2-18.34-43.79-41-43.79z"  horiz-adv-x="1024" />

    
    <glyph glyph-name="10" unicode="&#59028;" d="M753.59 555.3c-22.39 113-122 198.18-241.61 198.18s-219.23-85.2-241.62-198.18a191.58 191.58 0 0 1-141.74-185.18c0.11-105.81 86-191.5 191.78-191.39h383.16a191.58 191.58 0 0 1 185.18 141.75c27.52 102.16-32.99 207.3-135.15 234.82z m-50-321.83h-383.2a136.84 136.84 0 0 0 0 273.69c0 105.84 85.78 191.58 191.61 191.58S703.56 613 703.56 507.16a136.84 136.84 0 0 0 0-273.69zM306.71 14.519999999999982c-22.66 0-41.05 19.6-41.05 43.79q0 24.22 41.05 65.69 41.05-41.46 41.05-65.69c0-24.19-18.39-43.79-41.05-43.79zM443.55 14.519999999999982c-22.66 0-41.05 19.6-41.05 43.79q0 24.22 41.05 65.69 41.05-41.46 41.05-65.69c0.01-24.19-18.38-43.79-41.05-43.79zM580.4 14.519999999999982c-22.66 0-41.05 19.6-41.05 43.79q0 24.22 41.05 65.69 41.05-41.46 41.05-65.69c0-24.19-18.39-43.79-41.05-43.79zM717.24 14.519999999999982c-22.66 0-41.05 19.6-41.05 43.79q0 24.22 41.05 65.69 41.05-41.46 41.05-65.69c0.01-24.19-18.39-43.79-41.05-43.79z"  horiz-adv-x="1024" />

    


  </font>
</defs>
</svg>
